<svg xmlns="http://www.w3.org/2000/svg" viewBox="0 0 36 36"><circle fill="#f1f1f1" cx="18" cy="18" r="18"/><path fill="#404040" d="M25.05,7.4H11A1.83,1.83,0,0,0,9.13,9.22V26.78A1.83,1.83,0,0,0,11,28.6h14.1a1.83,1.83,0,0,0,1.82-1.82V9.22A1.83,1.83,0,0,0,25.05,7.4Zm.52,19.38a.52.52,0,0,1-.52.52H11a.52.52,0,0,1-.52-.52V9.22A.52.52,0,0,1,11,8.7h14.1a.52.52,0,0,1,.52.52Z"/><path fill="#404040" d="M23,12.88H16.32a.65.65,0,0,0,0,1.3H23a.65.65,0,1,0,0-1.3Z"/><path fill="#404040" d="M23,17.35H16.32a.65.65,0,0,0,0,1.3H23a.65.65,0,0,0,0-1.3Z"/><path fill="#404040" d="M23,21.82H16.32a.65.65,0,1,0,0,1.3H23a.65.65,0,0,0,0-1.3Z"/><path fill="#404040" d="M13.17,12.68a.85.85,0,1,0,.84.85A.85.85,0,0,0,13.17,12.68Z"/><circle fill="#404040" cx="13.17" cy="18" r="0.85"/><circle fill="#404040" cx="13.17" cy="22.47" r="0.85"/></svg>
