<svg xmlns="http://www.w3.org/2000/svg" viewBox="0 0 51.64 51.64"><circle fill="#fff" cx="25.82" cy="25.82" r="25.82"/><path fill="#a67a44" d="M23.6,21.92H31a1,1,0,1,0,0-2H23.6a1,1,0,0,0,0,2Z"/><path fill="#a67a44" d="M23.6,26.82H31a1,1,0,0,0,0-2H23.6a1,1,0,0,0,0,2Z"/><path fill="#a67a44" d="M23.6,31.71H31a1,1,0,0,0,0-2H23.6a1,1,0,0,0,0,2Z"/><path fill="#a67a44" d="M33.92,13.92H17.72a1.91,1.91,0,0,0-1.9,1.9v20a1.9,1.9,0,0,0,1.9,1.9h16.2a1.9,1.9,0,0,0,1.9-1.9v-20A1.91,1.91,0,0,0,33.92,13.92Zm-.1,21.79h-16V15.92h16Z"/><circle fill="#a67a44" cx="20.15" cy="20.92" r="1"/><circle fill="#a67a44" cx="20.15" cy="25.82" r="1"/><circle fill="#a67a44" cx="20.15" cy="30.71" r="1"/></svg>
