<svg xmlns="http://www.w3.org/2000/svg" viewBox="0 0 30 30"><circle fill="#fff" cx="15" cy="15" r="15"/><path fill="#404040" d="M12.07,22.06a9.53,9.53,0,0,0,9.82-9.39c0-.14,0-.28,0-.42a6.82,6.82,0,0,0,1.72-1.71,7.59,7.59,0,0,1-2,.52,3.38,3.38,0,0,0,1.52-1.83A7.19,7.19,0,0,1,21,10a3.51,3.51,0,0,0-2.52-1A3.38,3.38,0,0,0,15,12.29a3.74,3.74,0,0,0,.08.75A9.94,9.94,0,0,1,8,9.59,3.23,3.23,0,0,0,9,14a3.72,3.72,0,0,1-1.56-.41v0a3.34,3.34,0,0,0,2.77,3.24,3.39,3.39,0,0,1-.91.12,3.49,3.49,0,0,1-.65-.06,3.45,3.45,0,0,0,3.23,2.29,7.12,7.12,0,0,1-4.29,1.41,7.38,7.38,0,0,1-.82,0,10.11,10.11,0,0,0,5.28,1.47"/></svg>
