<svg xmlns="http://www.w3.org/2000/svg" viewBox="0 0 30 30"><circle fill="#fff" cx="15" cy="15" r="15"/><path fill="#404040" d="M14.53,24.27h-.25a.48.48,0,0,1-.24-.65c0-.1.07-.2.11-.3a4.11,4.11,0,0,0,.26-1.43.43.43,0,0,0-.45-.48,11,11,0,0,1-1.17-.16,9.52,9.52,0,0,1-5.9-3.39,6.47,6.47,0,0,1-.84-7.18A8,8,0,0,1,9.73,7a11.19,11.19,0,0,1,7.7-1,9.42,9.42,0,0,1,5.73,3.4,6.45,6.45,0,0,1,1.38,5.46,7.46,7.46,0,0,1-2.08,3.72,26.71,26.71,0,0,1-4,3.31,26.48,26.48,0,0,1-4,2.38m3.15-10.75h0V11.71c0-.35-.18-.54-.48-.55s-.48.2-.48.56v1.91c0,.09,0,.21,0,.25s-.14-.09-.19-.16c-.23-.3-.45-.61-.68-.92-.34-.46-.67-.92-1-1.37a.51.51,0,0,0-.75-.17.61.61,0,0,0-.18.5v3.55a.71.71,0,0,0,.05.29.46.46,0,0,0,.49.3.45.45,0,0,0,.41-.43,2.44,2.44,0,0,0,0-.27c0-.61,0-1.21,0-1.81,0-.08,0-.19.06-.22s.12.07.16.13l.63.86c.38.51.74,1,1.12,1.52a.46.46,0,0,0,.54.2.5.5,0,0,0,.35-.49V13.52m.72,0h0v1.81c0,.39.18.56.56.56h1.75a.47.47,0,0,0,.53-.46.5.5,0,0,0-.52-.49H20c-.79,0-.65.12-.68-.68,0-.19,0-.26.25-.25.39,0,.77,0,1.16,0a.48.48,0,0,0,.48-.47.46.46,0,0,0-.49-.48H20c-.66,0-.65,0-.65-.65,0-.25.09-.32.32-.31h1A.56.56,0,0,0,21,12a.43.43,0,0,0,.23-.5.44.44,0,0,0-.46-.37H19c-.44,0-.59.16-.59.61v1.77m-9.6,0h0c0,.61,0,1.23,0,1.84,0,.39.17.55.56.55h1.71a.51.51,0,0,0,.57-.48.51.51,0,0,0-.56-.47h-1c-.35,0-.36,0-.36-.35,0-.94,0-1.87,0-2.81a.73.73,0,0,0,0-.36.45.45,0,0,0-.52-.24.43.43,0,0,0-.36.44v1.89m4.29,0h0c0-.62,0-1.24,0-1.86a.46.46,0,1,0-.91,0c0,1.24,0,2.47,0,3.7,0,.34.19.55.48.54s.44-.21.45-.54V13.53"/></svg>
