<svg xmlns="http://www.w3.org/2000/svg" viewBox="0 0 36 36"><circle fill="#f1f1f1" cx="18" cy="18" r="18"/><path fill="#404040" d="M27.8,11.62H25V8.11A2.07,2.07,0,0,0,22.93,6H13.07A2.07,2.07,0,0,0,11,8.11v3.51H8.2a2,2,0,0,0-2,2v9.74a2,2,0,0,0,2,2h2.63v2.59A2,2,0,0,0,12.77,30H23.23a2,2,0,0,0,1.94-2.1V25.27H27.8a2,2,0,0,0,2-2V13.57A2,2,0,0,0,27.8,11.62ZM12.31,8.11a.77.77,0,0,1,.76-.77h9.86a.77.77,0,0,1,.76.77v3.51H12.31ZM23.87,27.86a.74.74,0,0,1-.64.8H12.77a.74.74,0,0,1-.64-.8V20.72a.74.74,0,0,1,.64-.8H23.23a.74.74,0,0,1,.64.8Zm4.59-4.55a.66.66,0,0,1-.66.66H25.17V20.72a2,2,0,0,0-1.94-2.1H12.77a2,2,0,0,0-1.94,2.1V24H8.2a.66.66,0,0,1-.66-.66V13.57a.66.66,0,0,1,.66-.65H27.8a.66.66,0,0,1,.66.65Z"/><path fill="#404040" d="M24.34,15.41a.83.83,0,1,0,.83.82A.82.82,0,0,0,24.34,15.41Z"/><path fill="#404040" d="M21.65,22h-7.3a.65.65,0,0,0,0,1.3h7.3a.65.65,0,0,0,0-1.3Z"/><path fill="#404040" d="M21.65,25.26h-7.3a.65.65,0,0,0,0,1.3h7.3a.65.65,0,0,0,0-1.3Z"/></svg>
