<svg xmlns="http://www.w3.org/2000/svg" viewBox="0 0 36 36"><circle fill="#f1f1f1" cx="18" cy="18" r="18"/><path fill="#404040" d="M14.37,10.44a1.54,1.54,0,0,0-.55-.71A1.49,1.49,0,0,0,13,9.46a1.46,1.46,0,0,0-.85.27,1.48,1.48,0,0,0-.55.71L6.22,25.63a.64.64,0,0,0,.1.62.66.66,0,0,0,.56.29,1.32,1.32,0,0,0,1.26-.91l1.29-3.89a.25.25,0,0,1,.26-.18h6.48a.27.27,0,0,1,.28.18l1.24,3.84a1.38,1.38,0,0,0,.5.69,1.35,1.35,0,0,0,.83.27.66.66,0,0,0,.56-.29.67.67,0,0,0,.1-.64ZM15.78,20a.11.11,0,0,1-.1.06h-5.5a.14.14,0,0,1-.12-.06.12.12,0,0,1,0-.13l2.85-8.7s0,0,0,0,0,0,0,0l2.86,8.7A.28.28,0,0,1,15.78,20Z"/><path fill="#404040" d="M29.78,22.26l-3.17-8.52a1.17,1.17,0,0,0-.41-.52,1.1,1.1,0,0,0-.63-.2H25.4a1.09,1.09,0,0,0-.62.2,1.1,1.1,0,0,0-.41.52l-3.18,8.52a.54.54,0,0,0,.5.72h0a1,1,0,0,0,.62-.21,1,1,0,0,0,.4-.53l.61-1.8a.16.16,0,0,1,.15-.11H27.4a.16.16,0,0,1,.15.11l.61,1.8a1,1,0,0,0,.4.53,1,1,0,0,0,.62.21h.1a.53.53,0,0,0,.44-.23A.49.49,0,0,0,29.78,22.26ZM27,19.16H23.92c-.07,0-.09,0-.07-.11l1.6-4.69h0l1.6,4.69C27.09,19.12,27.06,19.16,27,19.16Z"/></svg>
