<svg width="42" height="42" viewBox="0 0 42 42" fill="none" xmlns="http://www.w3.org/2000/svg">
<circle cx="21" cy="21" r="21" fill="white"/>
<path fill-rule="evenodd" clip-rule="evenodd" d="M29.2892 13.2199C28.9963 12.927 28.5214 12.927 28.2285 13.2199L21.2545 20.1939L14.2804 13.2199C13.9875 12.927 13.5126 12.927 13.2197 13.2199C12.9269 13.5127 12.9269 13.9876 13.2197 14.2805L20.1938 21.2546L13.2195 28.2289C12.9267 28.5217 12.9267 28.9966 13.2195 29.2895C13.5124 29.5824 13.9873 29.5824 14.2802 29.2895L21.2545 22.3152L28.2287 29.2895C28.5216 29.5824 28.9965 29.5824 29.2894 29.2895C29.5823 28.9966 29.5823 28.5217 29.2894 28.2289L22.3151 21.2546L29.2892 14.2805C29.5821 13.9876 29.5821 13.5127 29.2892 13.2199Z" fill="#979797"/>
</svg>
