<svg width="20" height="21" viewBox="0 0 20 21" xmlns="http://www.w3.org/2000/svg"><g fill="none" fill-rule="evenodd"><path d="M12.919 3.07a7.568 7.568 0 0 0-10.702 0l2.66 2.66a3.806 3.806 0 0 1 5.382 5.383l1.01 1.01 1.65 1.65 5.857 5.857 1.237-1.237-6.007-6.007c1.799-2.916 1.44-6.786-1.087-9.315" fill="#EAEAEA"/><path d="M4.876 5.731l-2.66-2.66a7.568 7.568 0 0 0 0 10.703c2.53 2.528 6.4 2.886 9.315 1.087l6.007 6.005 1.237-1.236-5.857-5.856-1.65-1.65-1.01-1.01A3.805 3.805 0 0 1 4.876 5.73" fill="#FFF"/></g></svg>