<svg width="219" height="32" viewBox="0 0 219 32" xmlns="http://www.w3.org/2000/svg"><defs><style>.cls-1{fill:#fff}</style></defs><g id="Layer_2"><g id="logo"><path class="cls-1" d="M29.85 25.61L18.2 22.88V8.32L29.85 5.1v20.51z"/><path opacity=".8" fill="#fff" d="M0 31.2l18.2-8.32V8.32L0 0v31.2z"/><path class="cls-1" d="M140.73 11.42h1.08V4.86h-2v1.32h-1.05V3.87h7.29v2.31H145V4.86h-2v6.56h1.07v.94h-3.35zM149.44 11.42h1.06V4.8h-1.06v-.93h3.33v.93h-1.07v2.82h4.4V4.8H155v-.93h3.33v.93h-1.05v6.62h1.05v.94H155v-.94h1.07V8.61h-4.4v2.81h1.07v.94h-3.33zM162 11.42h1.06V4.8H162v-.93h6.15v2h-1.05v-1h-2.8v2.72h3v1h-3v2.81h3v-1h1v2H162zM138.71 27.43h1.06v-6.62h-1.06v-.93h3.68a4.75 4.75 0 0 1 1.56.18 2.15 2.15 0 0 1 1.48 2.2 2.3 2.3 0 0 1-1.75 2.38 1.08 1.08 0 0 1 .36.39l1.2 2.1c.13.23.29.27.59.27h.25v.94h-.72c-.72 0-.89-.13-1.18-.64l-1.31-2.32c-.21-.36-.37-.47-.89-.47h-1v2.49H142v.94h-3.31zm4-3.47a1.46 1.46 0 0 0 1.54-1.6 1.32 1.32 0 0 0-.8-1.34 2.86 2.86 0 0 0-1-.15H141V24zM149.45 27.43h1.06v-6.62h-1.06v-.93h6.15v2h-1v-1h-2.84v2.72h3v1h-3v2.81h3v-1h1v2h-6.35zM159.18 27.43h1v-6.62h-1v-.93h3.95a3.62 3.62 0 0 1 1.46.23 2.49 2.49 0 0 1 1.44 2.4 2.52 2.52 0 0 1-1.6 2.49 3.49 3.49 0 0 1-1.27.18h-1.72v2.25h1.07v.94h-3.33zM163 24.2a2.37 2.37 0 0 0 1-.17 1.55 1.55 0 0 0 .86-1.52 1.52 1.52 0 0 0-.76-1.44 2.3 2.3 0 0 0-1-.2h-1.58v3.33zM173.77 19.74a4.28 4.28 0 0 1 4.36 4.32 4.37 4.37 0 1 1-8.73 0 4.28 4.28 0 0 1 4.37-4.32zm0 7.7a3.22 3.22 0 0 0 3.11-3.38 3.12 3.12 0 1 0-6.24 0 3.23 3.23 0 0 0 3.13 3.38zM181.5 27.43h1.06v-6.62h-1.06v-.93h3.68a4.78 4.78 0 0 1 1.57.18 2.15 2.15 0 0 1 1.48 2.2 2.31 2.31 0 0 1-1.76 2.38 1 1 0 0 1 .36.39l1.2 2.1c.14.23.29.27.59.27h.26v.94h-.72c-.73 0-.9-.13-1.18-.64l-1.31-2.32a.83.83 0 0 0-.89-.47h-1v2.49h1v.94h-3.28zm4-3.47a1.46 1.46 0 0 0 1.54-1.6 1.31 1.31 0 0 0-.79-1.34 3 3 0 0 0-1.05-.15h-1.4V24zM194.22 27.43h1.07v-6.56h-2v1.32h-1v-2.31h7.29v2.31h-1v-1.32h-2v6.56h1.07v.94h-3.34zM202.91 27.43H204v-6.62h-1.05v-.93h6.14v2h-1v-1h-2.84v2.72h3v1h-3v2.81h3v-1h1v2h-6.35zM212.63 27.43h1.06v-6.62h-1.06v-.93h3.68a4.75 4.75 0 0 1 1.56.18 2.15 2.15 0 0 1 1.48 2.2 2.3 2.3 0 0 1-1.76 2.38 1.05 1.05 0 0 1 .37.39l1.2 2.1c.13.23.29.27.59.27h.25v.94h-.72c-.72 0-.89-.13-1.18-.64l-1.31-2.32a.82.82 0 0 0-.89-.47h-1v2.49h1.05v.94h-3.31zm4-3.47a1.47 1.47 0 0 0 1.54-1.6 1.32 1.32 0 0 0-.8-1.34 2.89 2.89 0 0 0-1-.15h-1.41V24zM54.81 9.55h-2.13a2.3 2.3 0 0 1-1.2 1.45h-3V6.7h5.12V4.56h-2.09A2.3 2.3 0 0 1 50.31 6h-1.8V1.53h-2.18V6h-4.56v.7h4.56V11h-5.42v.66H54.8zM51.57 16.17H48.9c.86-.7 3.16-3.16 3.16-3.16l-2.59-1a29.76 29.76 0 0 1-1 4.05l.25.15h-3.81l1.74-.73a7.63 7.63 0 0 0-2.84-3.26l-.46.28a16.45 16.45 0 0 1 1.25 3.71H41v.66h5.33v4.41h-4.78v.67h4.78v7.76h2.18v-7.8h5.79v-2h-2.14a2.16 2.16 0 0 1-1 1.34h-2.65v-4.42h6.33v-2.11h-2.12a2.28 2.28 0 0 1-1.15 1.45zM63.65 23.78l-.2-.23c.08-.11.15-.22.2-.3A26.13 26.13 0 0 0 67 14.08v-.62h-8.86V4.05h6.11v4.78s.11 1-.72 1l-1.93-.2v.49s1.94.05 2 .76c.15.9 2.72 1.47 2.72-2.05V2h-2.08a2.3 2.3 0 0 1-1.07 1.4h-5V1.84H56v27.83h2.17V14.08h6.61c-.09.47-.49 2.82-.69 3.65s-.41 1.36-.67 2.1-.63 1.64-1 2.44a17.78 17.78 0 0 1-3-6.49l-.47.09A21.76 21.76 0 0 0 61.56 24a24.53 24.53 0 0 1-3.3 4.86l.2.39a29.07 29.07 0 0 0 3.86-4.07l.21.32a12.92 12.92 0 0 0 4.14 3.87l1.71-2.18a14.84 14.84 0 0 1-4.73-3.41zM81 23.31l-.41.49c1.27.67 3.46 4.32 3.46 4.32L86 26.57a10.69 10.69 0 0 0-5-3.26z"/><path class="cls-1" d="M97.94 20.45a2.23 2.23 0 0 1-1 1.35h-2.63v-1.65h-2.16v1.65H73.5v.84h18.66v4.15c0 .91-1.57.72-1.57.72H88.4v.46c.46 0 2.65.27 3 .66s.26.95.81 1.11a2 2 0 0 0 1.4-.44 2.15 2.15 0 0 0 .75-1.83v-4.83h5.78v-2.19zM78.91 7.05l1.56-1.31A6.13 6.13 0 0 0 75.6 3.1l-.26.48c1.56.61 3.57 3.47 3.57 3.47zM99.46 4.1h-2.15a2.3 2.3 0 0 1-1.21 1.48h-3.52C93.15 5 94.64 3 95.72 1.52L93 1.45s-.83 3.16-1.27 4.14h-3.96l1.78-1.09a9.28 9.28 0 0 0-4.42-3l-.38.46a11.17 11.17 0 0 1 2.78 3.68h-5.68v.67h17.6zM97.92 16.65v-10h-2.41a4.19 4.19 0 0 1-.19.46 1.87 1.87 0 0 1-.32.42 2.05 2.05 0 0 1-.41.3h-8.54V6.68h-2.14v9.94h2.14v-1.21h9.48v1.24zM86.05 8.59h9.48v1.77h-9.48zm0 2.33h9.48v1.67h-9.48zm0 3.82v-1.59h9.48v1.59z"/><path class="cls-1" d="M77.87 10.58h.51v4.93l-4.7 1.86L75 19.55l3.91-3.29h1.83c3.53 4.62 19.16 3.08 19.16 3.08v-2c-4.1.73-12.41.31-12.41.31-5.14-.12-6.36-1.82-6.75-2.41V8.71h-2.37a1.86 1.86 0 0 1-1 1.19H73.5v.68h4.37zM114.16 22.12h10.53v.01h-10.53z"/><path class="cls-1" d="M127.08 27.42V14.75h-2.15a2.27 2.27 0 0 1-1.09 1.42h-7.49a44.29 44.29 0 0 0 6-4.41h9.08V9.64h-2.16a2.28 2.28 0 0 1-1.14 1.45h-5a44.44 44.44 0 0 0 6.51-8l-2-1.23a40.79 40.79 0 0 1-7.33 9.27h-1.91V6h6V3.87h-2.15a2.26 2.26 0 0 1-1.17 1.46h-2.68v-3.8h-2.2v3.8h-8.27V6h8.27v5.09L105.28 11v.68l14.26.1a46 46 0 0 1-14.38 9.14l.21.59a61.85 61.85 0 0 0 6.68-2.94v11.05h2.11v-2.1h10.53v2.15h2.39v-2.25zm-2.39-5.3v4.72h-10.53v-4.72h10.53zm0-.68h-10.53v-4c.32-.17.64-.36 1-.55h9.56z"/></g></g></svg>
