<svg width="219" height="40" viewBox="0 0 219 40" xmlns="http://www.w3.org/2000/svg"><g fill="none" fill-rule="evenodd"><g fill="#231916"><path d="M123.863 10.286s.895-.398 1.118-1.366h1.988v1.664h-3.205l.099-.298zM130.103 15.614s.895-.398 1.119-1.367h1.988v1.664h-3.206l.1-.297zM126.348 20.327s.894-.398 1.119-1.367h1.987v1.666h-3.205l.1-.299z"/><path d="M113.103 10.89h13.859v-.623h-13.859zM110.335 16.201h22.882v-.621h-22.882zM117.748 20.94h10.788v-.671h-10.788zM116.566 25.627h12.058v-.622h-12.058zM116.566 29.895h12.058v-.623h-12.058z"/><path d="M115.588 32.463h1.944V21.358h-1.944zM127.462 32.506h2.002V20.408h-2.002zM119.421 16.178h2.03V6.615h-2.03z"/><path d="M129.21 8.166s-5.224 10.372-20.703 16.54l.197.55s15.084-4.283 22.353-15.95l-1.847-1.14zM99.644 10.407s.894-.397 1.117-1.366h1.988v1.665h-3.206l.1-.299zM98.948 25.812s.895-.399 1.119-1.368h1.988v1.665h-3.207l.1-.297z"/><path d="M86.494 11.038h16.244v-.622H86.494zM88.253 13.292h12.142v-.67H88.253zM88.282 15.632h12.142v-.622H88.282zM88.253 17.84h12.142v-.622H88.253zM88.253 20.108h12.142v-.622H88.253zM77.507 15.913h6.203v-.623h-6.203z"/><path d="M82.011 20.65h2.033v-5.401h-2.033zM100.283 10.413s.708-.314.884-1.08h1.571v1.316h-2.534l.08-.236z"/><path d="M81.588 15.266s.708-.314.885-1.08h1.57v1.316h-2.534l.08-.236zM79.048 26.319h23.006v-.623H79.048z"/><path d="M99.578 25.693s.708-.313.884-1.08h1.572v1.317h-2.535l.08-.237zM98.411 12.662s.74-.33.926-1.131h1.645v1.377H98.33l.082-.246zM81.985 15.285s.593-.265.741-.907h1.318v1.105h-2.126l.067-.198zM79.46 8.445l.324-.5s2.946.706 4.272 3.269l-1.532 1.09s-1.68-3.181-3.064-3.86M88.74 6.719l.283-.345s1.945.22 3.324 2.29l-1.692.908s-.628-1.88-1.914-2.853M96.11 6.98s-.933 3.086-1.287 3.665h.547s1.865-1.929 3.119-3.602l-2.38-.063zM78.164 21.856l4.007-1.827.295.502-3.006 3.534zM83.938 19.502s.933 2.289 6.668 2.426c0 0 7.495.393 11.276-.275v1.62s-15.91 1.768-18.208-3.241l.264-.53z"/><path d="M87.374 20.897h1.973v-9.143h-1.973zM98.975 20.93h2.002v-8.276h-2.002zM85.843 27.995l.323-.324s2.299.53 3.654 2.533l-1.532 1.326s-1.827-3.33-2.445-3.535M94.717 24.173h1.999v6.634c0 .656-.157 1.29-.693 1.684-.302.222-.905.522-1.294.41-.508-.147-.414-.796-.686-1.135-.288-.357-.976-.444-1.406-.444l.016-.418h1.226s.862.129.862-.71c0-.838-.024-6.02-.024-6.02M46.028 11.853h12.535v-.616H46.028zM60.577 9.41h7.642v-.617h-7.642zM61.043 19.637h8.851v-.569h-8.85z"/><path d="M50.793 16.21h2.013V7.082h-2.013zM59.826 32.549h1.87V7.362h-1.87zM50.793 32.698h2.013V20.933h-2.013zM55.492 11.23s.885-.393 1.107-1.352h1.968v1.648h-3.174l.099-.295zM55.492 25.376s.885-.394 1.107-1.354h1.968v1.65h-3.174l.099-.296zM66.214 8.858s.887-.394 1.109-1.354h1.967v1.649h-3.174l.098-.295zM55.587 20.598s.885-.394 1.106-1.354h1.969v1.65h-3.174l.099-.296zM55.546 15.836s.885-.394 1.107-1.353h1.968v1.647h-3.174l.099-.294z"/><path d="M45.032 16.46h13.586v-.616H45.032zM45.108 21.193H58.65v-.616H45.108z"/><path d="M56.216 20.547s.7-.313.874-1.07h1.556v1.302h-2.508l.078-.232zM46.037 25.877H58.57v-.617H46.037zM47.905 17.147l.428-.252s1.614 1.633 2.333 3.111l-1.574.68s-.797-3.13-1.187-3.54M53.896 16.7l2.393.954s-2.238 2.391-2.977 2.974l-.31-.194s.622-1.907.894-3.735M67.337 8.79V15.611s.104.908-.664.908h-.802v.452s1.151.07 1.151.734c0 .662 2.268 1.15 2.268-2.094v-6.89l-1.953.07zM67.879 19.046s-.682 8.08-5.643 13.699l.209.342s6.45-5.566 7.497-13.865l-2.063-.176z"/><path d="M62.86 20.394s1.4 7.43 8.286 10.494L69.57 32.9s-5.864-2.878-7.147-12.418l.437-.088z"/><g><path d="M143.315 16.397h1.01v-6.198h-1.884v1.248h-.988v-2.18h6.88v2.18h-.988v-1.248h-1.884v6.198h1.01v.885h-3.156zM151.531 16.397h1v-6.255h-1v-.874h3.145v.874h-1.01v2.668h4.154v-2.668h-1.01v-.874h3.145v.874h-1v6.255h1v.885h-3.144v-.885h1.01V13.74h-4.156v2.657h1.01v.885h-3.144zM163.426 16.397h1v-6.255h-1v-.874h5.8v1.861h-.986v-.93h-2.68v2.576h2.838v.931h-2.838v2.646h2.872v-.966h.988v1.896h-5.994zM145.15 26.96c.874 0 1.453-.568 1.453-1.51 0-.624-.25-1.056-.749-1.26-.261-.102-.602-.147-.988-.147h-1.328v2.916h1.612zm-3.746 3.28h1v-6.254h-1v-.874h3.474c.567 0 1.033.022 1.475.17.84.284 1.396.988 1.396 2.078 0 1.158-.635 1.985-1.657 2.247v.023s.204.113.34.374l1.136 1.975c.125.217.273.262.556.262h.238v.885h-.68c-.682 0-.84-.124-1.113-.602l-1.238-2.19c-.204-.341-.351-.443-.84-.443h-.953v2.35h.987v.885h-3.121v-.885zM151.585 30.24h.999v-6.254h-1v-.874h5.801v1.861h-.987v-.93h-2.68v2.576h2.839v.931h-2.839v2.646h2.873v-.966h.988v1.896h-5.994zM164.649 27.187c.363 0 .647-.057.896-.158.511-.228.807-.74.807-1.431 0-.648-.262-1.124-.716-1.362-.25-.137-.59-.194-.975-.194h-1.5v3.145h1.488zm-3.622 3.054h1v-6.255h-1v-.875h3.735c.488 0 .976.035 1.374.216.829.352 1.362 1.204 1.362 2.27 0 1.124-.59 2.033-1.51 2.35-.375.137-.76.17-1.203.17h-1.623v2.124h1.01v.885h-3.145v-.885zM174.773 30.252c1.623 0 2.94-1.385 2.94-3.19 0-1.749-1.317-3.087-2.94-3.087-1.635 0-2.952 1.338-2.952 3.087 0 1.805 1.317 3.19 2.952 3.19m0-7.276c2.315 0 4.12 1.782 4.12 4.086 0 2.361-1.805 4.2-4.12 4.2-2.327 0-4.121-1.839-4.121-4.2 0-2.304 1.794-4.086 4.12-4.086M185.975 26.96c.874 0 1.453-.568 1.453-1.51 0-.624-.25-1.056-.75-1.26-.26-.102-.6-.147-.987-.147h-1.328v2.916h1.612zm-3.746 3.28h.999v-6.254h-1v-.874h3.475c.567 0 1.032.022 1.475.17.84.284 1.396.988 1.396 2.078 0 1.158-.635 1.985-1.657 2.247v.023s.204.113.34.374l1.135 1.975c.126.217.273.262.557.262h.238v.885h-.68c-.682 0-.841-.124-1.113-.602l-1.237-2.19c-.205-.341-.352-.443-.84-.443h-.954v2.35h.987v.885h-3.121v-.885zM193.953 30.24h1.01v-6.197h-1.884v1.248h-.987v-2.18h6.878v2.18h-.987v-1.248H196.1v6.198h1.01v.885h-3.156zM202.17 30.24h.999v-6.254h-.999v-.874h5.8v1.861h-.987v-.93h-2.679v2.576h2.838v.931h-2.838v2.646h2.872v-.966h.988v1.896h-5.994zM215.359 26.96c.874 0 1.453-.568 1.453-1.51 0-.624-.25-1.056-.75-1.26-.26-.102-.6-.147-.987-.147h-1.328v2.916h1.612zm-3.746 3.28h.999v-6.254h-1v-.874h3.474c.568 0 1.033.022 1.476.17.84.284 1.396.988 1.396 2.078 0 1.158-.635 1.985-1.657 2.247v.023s.204.113.34.374l1.136 1.975c.125.217.272.262.556.262h.238v.885h-.68c-.682 0-.841-.124-1.114-.602l-1.236-2.19c-.205-.341-.353-.443-.84-.443h-.954v2.35h.988v.885h-3.122v-.885z"/></g></g><path fill="#C7000D" d="M37.301 32.302l-14.613-3.46V10.766l14.613-4.23z"/><path fill="#E60013" d="M0 39.609L23.073 28.84V10.767L0 0z"/></g></svg>