<svg width="20" height="22" viewBox="0 0 20 22" fill="none" xmlns="http://www.w3.org/2000/svg">
<path fill-rule="evenodd" clip-rule="evenodd" d="M6.982 11.6617C5.77998 10.7049 5.00946 9.22908 5.00946 7.5731V5.2481C5.00946 2.61202 7.14711 0.475098 9.78346 0.475098H10.6815C13.3178 0.475098 15.4555 2.61202 15.4555 5.2481V7.5731C15.4555 9.22909 14.6849 10.7049 13.4829 11.6618C14.0552 12.2735 14.8433 12.7101 15.8882 13.036C19.2745 14.0917 20.9449 17.9042 19.4212 21.1195L19.1883 21.594H1.26791L1.06489 21.1645L1.03919 21.1102C-0.480015 17.9042 1.19036 14.0917 4.57661 13.036C5.62154 12.7101 6.40967 12.2735 6.982 11.6617ZM8.30421 12.4287C7.51972 13.3881 6.43125 14.0288 5.02316 14.468C2.63805 15.2116 1.39832 17.7971 2.23813 20.094H18.2268C19.0668 17.7975 17.827 15.2116 15.4416 14.468C14.0336 14.0288 12.9452 13.3881 12.1607 12.4287C11.5641 12.6658 10.9135 12.7961 10.2325 12.7961C9.55141 12.7961 8.90079 12.6658 8.30421 12.4287ZM10.2325 11.2961C12.2886 11.2961 13.9555 9.62951 13.9555 7.5731V5.2481C13.9555 3.44056 12.4895 1.9751 10.6815 1.9751H9.78346C7.97543 1.9751 6.50946 3.44056 6.50946 5.2481V7.5731C6.50946 9.62951 8.1763 11.2961 10.2325 11.2961Z" fill="#262626"/>
</svg>
