<svg width="19" height="21" viewBox="0 0 19 21" fill="none" xmlns="http://www.w3.org/2000/svg">
<path fill-rule="evenodd" clip-rule="evenodd" d="M1.5 3.19V17.13C1.5 18.05 2.02 18.82 2.64 18.82H11.97V20.32H2.64C1.18 20.32 0 18.89 0 17.13V3.19C0 1.43 1.18 0 2.64 0H11.97V1.5H2.64C2.02 1.5 1.5 2.27 1.5 3.19ZM18.455 10.795C18.4525 10.8 18.45 10.805 18.45 10.81C18.4408 10.8283 18.4295 10.8446 18.4191 10.8597C18.4067 10.8775 18.3954 10.8937 18.39 10.91L18.38 10.92C18.3758 10.9283 18.3721 10.9362 18.3685 10.9438C18.3549 10.9725 18.3437 10.9962 18.32 11.02C18.32 11.03 18.31 11.03 18.31 11.03L18.29 11.05L18.28 11.06L13.55 15.44C13.41 15.57 13.22 15.64 13.04 15.64C12.84 15.64 12.64 15.56 12.49 15.4C12.21 15.1 12.23 14.62 12.53 14.34L15.85 11.26H6.62C6.21 11.26 5.87 10.92 5.87 10.51C5.87 10.1 6.21 9.75998 6.62 9.75998H15.84L12.52 6.67998C12.22 6.39998 12.2 5.91998 12.48 5.61998C12.76 5.31998 13.24 5.29998 13.54 5.57998L18.27 9.95998L18.28 9.96998L18.3 9.98998C18.3 9.99998 18.31 9.99998 18.31 9.99998C18.3288 10.0188 18.3397 10.0415 18.3502 10.0632C18.3564 10.0762 18.3625 10.0888 18.37 10.1L18.38 10.11C18.3872 10.1207 18.3956 10.1315 18.4045 10.1427C18.4202 10.1628 18.4372 10.1843 18.45 10.21C18.45 10.215 18.4525 10.22 18.455 10.225C18.4575 10.23 18.46 10.235 18.46 10.24C18.473 10.266 18.4776 10.2963 18.4819 10.3254C18.4842 10.3409 18.4865 10.356 18.49 10.37C18.49 10.3964 18.4956 10.42 18.5008 10.4423C18.5055 10.4622 18.51 10.4811 18.51 10.5V10.51V10.52C18.51 10.57 18.5 10.61 18.49 10.65C18.4865 10.6639 18.4842 10.6791 18.4819 10.6946C18.4776 10.7236 18.473 10.7539 18.46 10.78C18.46 10.785 18.4575 10.79 18.455 10.795Z" fill="#262626"/>
</svg>
