<svg width="21" height="22" viewBox="0 0 21 22" fill="none" xmlns="http://www.w3.org/2000/svg">
<path fill-rule="evenodd" clip-rule="evenodd" d="M12.655 14.1091C11.3287 15.1281 9.66844 15.7338 7.8669 15.7338C3.52254 15.7338 0 12.2113 0 7.8669C0 3.52183 3.52219 0 7.8669 0C12.2116 0 15.7338 3.52183 15.7338 7.8669C15.7338 9.86935 14.9854 11.6972 13.7531 13.086L20.6952 20.028L19.6345 21.0887L12.655 14.1091ZM14.2338 7.8669C14.2338 4.35029 11.3832 1.5 7.8669 1.5C4.35058 1.5 1.5 4.35029 1.5 7.8669C1.5 11.3828 4.35096 14.2338 7.8669 14.2338C11.3828 14.2338 14.2338 11.3828 14.2338 7.8669Z" fill="#262626"/>
</svg>
