<svg xmlns="http://www.w3.org/2000/svg" width="29" height="120" viewBox="0 0 29 120">
  <path fill="#CDCDCD" fill-rule="evenodd" d="M0,0 L1.62037045,4.13711604 C2.91065704,7.43146478 3.60927961,8.53215832 4.58920167,9.61130044 C5.56912372,10.6904426 6.72501574,11.4791068 8.08720509,11.9979855 C9.44939443,12.5168643 10.7290633,12.7659574 14.2670815,12.7659574 L17,12.7659574 C23.627417,12.7659574 29,18.1385404 29,24.7659574 L29,95.2340426 C29,101.86146 23.627417,107.234043 17,107.234043 L14.2670815,107.234043 C10.7290633,107.234043 9.44939443,107.483136 8.08720509,108.002014 C6.72501574,108.520893 5.56912372,109.309557 4.58920167,110.3887 C3.60927961,111.467842 2.91065704,112.568535 1.62037045,115.862884 L0,120 L0,0 Z" opacity=".5"/>
</svg>
