<svg width="16" height="21" viewBox="0 0 16 21" fill="none" xmlns="http://www.w3.org/2000/svg">
<path fill-rule="evenodd" clip-rule="evenodd" d="M14.173 0.22467H2.04698C1.31698 0.22467 0.724976 0.81667 0.724976 1.54667V19.5627C0.724976 20.1357 1.19498 20.5447 1.70698 20.5447C1.87198 20.5447 2.04198 20.5027 2.20098 20.4097L8.10998 16.9487L14.019 20.4097C14.178 20.5027 14.348 20.5447 14.513 20.5447C15.025 20.5447 15.495 20.1357 15.495 19.5627V1.54667C15.495 0.81667 14.903 0.22467 14.173 0.22467M13.995 1.72467V18.6577L8.86798 15.6547L8.10998 15.2097L7.35198 15.6547L2.22498 18.6577V1.72467H13.995" fill="white"/>
</svg>
