<?xml version="1.0" encoding="UTF-8" standalone="no"?><!DOCTYPE svg PUBLIC "-//W3C//DTD SVG 1.1//EN" "http://www.w3.org/Graphics/SVG/1.1/DTD/svg11.dtd"><svg width="100%" height="100%" viewBox="0 0 726 477" version="1.1" xmlns="http://www.w3.org/2000/svg" xmlns:xlink="http://www.w3.org/1999/xlink" xml:space="preserve" style="fill-rule:evenodd;clip-rule:evenodd;"><g id="building"><path id="Fill.-1" d="M0.351,294.466l356.253,64.825l136.632,117.497l232.768,-193.178l-203.911,-61.425l-167.776,-221.53l-353.966,293.811Z"/><path id="Stroke.-30" d="M354.316,0.655l2.363,359.211" style="fill:none;stroke:#f4f4f4;stroke-width:0.5px;"/><path id="Fill.-38" d="M311.966,189.785l-20.998,17.419l0,-34.997l20.998,-17.419l0,34.997Z" style="fill:#fff;"/><path id="Stroke.-40" d="M302.135,188.741l0,-26.031" style="fill:none;stroke:#000;stroke-width:0.25px;stroke-linecap:round;"/><path id="Stroke.-42" d="M290.891,198.134l21.196,-17.572" style="fill:none;stroke:#000;stroke-width:0.25px;stroke-linecap:round;"/><path id="Fill.-44" d="M240.217,249.434l-20.998,17.419l0,-34.997l20.998,-17.419l0,34.997Z" style="fill:#fff;"/><path id="Stroke.-46" d="M245.804,250.288l-38.625,-5.75" style="fill:none;stroke:#000;stroke-width:0.25px;"/><path id="Fill.-48" d="M294.551,310.434l-20.998,17.419l0,-34.997l20.998,-17.419l0,34.997Z" style="fill:#fff;"/><path id="Fill.-50" d="M168.468,308.939l-15.933,13.217l-5.065,-0.92l0,-29.875l20.998,-17.419l0,34.997Z" style="fill:#fff;"/><path id="Fill.-52" d="M459.744,320.113l16.041,21.316l0,-34.924l-16.041,-21.316l0,34.924Z" style="fill:#fff;"/><path id="Fill.-54" d="M594.843,345.268l-27.084,-8.158l0,-34.925l27.083,8.159l0,34.924Z" style="fill:#fff;"/><path id="Fill.-56" d="M399.824,359.255l16.041,21.315l0,-34.924l-16.041,-21.316l0,34.925Z" style="fill:#fff;"/><path id="Stroke.-60" d="M164.846,293.855l0,4.933" style="fill:none;stroke:#000;stroke-width:0.25px;stroke-linecap:round;stroke-linejoin:round;"/><path id="Fill.-62" d="M404.136,221.711l16.042,21.315l0,-34.924l-16.042,-21.316l0,34.925Z" style="fill:#fff;"/><path id="Stroke.-64" d="M407.465,206.854l0,4.933" style="fill:none;stroke:#000;stroke-width:0.25px;stroke-linecap:round;stroke-linejoin:round;"/><path id="Fill.-66" d="M273.553,327.853l4.375,3.188l0,-11.147l-4.375,-3.187l0,11.146Z" style="fill:#fff;"/><path id="Stroke.-68" d="M273.553,327.853l4.375,3.188l0,-11.147l-4.375,-3.187l0,11.146Z" style="fill:none;stroke:#000;stroke-width:0.25px;"/><path id="Fill.-70" d="M294.704,310.733l4.222,2.889l0,-11.147l-4.222,-2.888l0,11.146Z" style="fill:#fff;"/><path id="Stroke.-72" d="M294.704,310.733l4.222,2.889l0,-11.147l-4.222,-2.888l0,11.146Z" style="fill:none;stroke:#000;stroke-width:0.25px;"/><path id="Fill.-74" d="M298.926,313.622l-20.998,17.418l0,-11.147l20.998,-17.418l0,11.147Z" style="fill:#fff;"/><path id="Stroke.-76" d="M298.926,313.622l-20.998,17.418l0,-11.147l20.998,-17.418l0,11.147Z" style="fill:none;stroke:#000;stroke-width:0.25px;"/><path id="Stroke.-78" d="M415.987,361.687l-8.267,-10.986" style="fill:none;stroke:#000;stroke-width:0.25px;stroke-linecap:round;"/><path id="Stroke.-80" d="M407.695,370.287l0,-35.813" style="fill:none;stroke:#000;stroke-width:0.25px;stroke-linecap:round;"/><path id="Stroke.-82" d="M485.679,309.538l-26.304,10.567" style="fill:none;stroke:#000;stroke-width:0.25px;"/><path id="Stroke.-84" d="M597.346,322.955l-28.948,14.179" style="fill:none;stroke:#000;stroke-width:0.25px;"/><path id="Fill.-86" d="M584.083,355.55l-16.254,-18.511l0,-34.925l16.254,18.512l0,34.924Z" style="fill:#fff;"/><path id="Stroke.-88" d="M584.083,355.55l-16.254,-18.511l0,-34.925l16.254,18.512l0,34.924Z" style="fill:none;stroke:#000;stroke-width:0.25px;"/></g></svg>