<?xml version="1.0" encoding="UTF-8" standalone="no"?><!DOCTYPE svg PUBLIC "-//W3C//DTD SVG 1.1//EN" "http://www.w3.org/Graphics/SVG/1.1/DTD/svg11.dtd"><svg width="100%" height="100%" viewBox="0 0 112 45" version="1.1" xmlns="http://www.w3.org/2000/svg" xmlns:xlink="http://www.w3.org/1999/xlink" xml:space="preserve" style="fill-rule:evenodd;clip-rule:evenodd;stroke-linejoin:round;stroke-miterlimit:1.41421;"><g id="notfound2"><g id="Group.-12"><path id="Fill.-14.-Copy" d="M29.189,11.164l2.352,0l1.559,-1.356l0,-6.322l-1.559,-1.355l-2.352,0l-1.56,1.355l0,6.322l1.56,1.356Zm3.148,2.131l-3.945,0l-2.893,-2.516l0,-8.264l2.893,-2.515l3.945,0l2.894,2.515l0,8.264l-2.894,2.516Z" style="fill:#a67a44;"/><g id="Group.-18"><path id="Fill.-18.-Copy" d="M50.997,2.785l8.704,0l0,-2.131l-8.704,0l0,2.131Z" style="fill:#e6e6e6;"/><path id="Fill.-20.-Copy" d="M54.266,13.538l2.13,0l0,-11.577l-2.13,0l0,11.577Z" style="fill:#e6e6e6;"/></g><path id="Fill.-25.-Copy" d="M7.321,13.253l-5.181,-8.821l0.023,8.808l-2.13,0.006l-0.033,-12.592l2.393,0l4.859,8.276l0,-8.276l2.131,0l0,12.579l-2.062,0.02Z"/></g><g id="Group.-15"><path id="Fill.-12.-Copy" d="M29.189,42.164l2.351,0l1.56,-1.356l0,-6.322l-1.56,-1.355l-2.351,0l-1.56,1.355l0,6.322l1.56,1.356Zm3.148,2.131l-3.945,0l-2.893,-2.516l0,-8.264l2.893,-2.515l3.945,0l2.894,2.515l0,8.264l-2.894,2.516Z"/><path id="Fill.-16.-Copy" d="M58.175,44.244l-3.761,0l-2.763,-2.402l0,-10.188l2.131,0l0,9.218l1.429,1.242l2.167,0l1.429,-1.242l0,-9.218l2.13,0l0,10.188l-2.762,2.402Z" style="fill:#e6e6e6;"/><g id="Group.-19"><path id="Fill.-21.-Copy" d="M0,33.785l8.704,0l0,-2.131l-8.704,0l0,2.131Z" style="fill:#a67a44;"/><path id="Fill.-22.-Copy" d="M1.308,39.015l6.536,0l0,-2.131l-6.536,0l0,2.131Z" style="fill:#a67a44;"/><path id="Fill.-23.-Copy" d="M0,43.885l2.13,0l0,-11.577l-2.13,0l0,11.577Z" style="fill:#a67a44;"/></g><path id="Fill.-24.-Copy" d="M105.433,42.111l2.984,0l1.437,-1.303l0,-5.963l-2.001,-1.061l-2.42,0l0,8.327Zm0,2.131l-2.131,0l0.001,-12.588l5.08,0l3.601,1.91l0,8.188l-2.745,2.49l-3.806,0Z" style="fill:#a67a44;"/><path id="Fill.-26.-Copy" d="M84.47,44.253l-5.181,-8.822l0.023,8.809l-2.13,0.006l-0.032,-12.592l2.392,0l4.86,8.275l0,-8.275l2.13,0l0,12.579l-2.062,0.02Z"/></g></g></svg>