<?xml version="1.0" encoding="UTF-8" standalone="no"?><!DOCTYPE svg PUBLIC "-//W3C//DTD SVG 1.1//EN" "http://www.w3.org/Graphics/SVG/1.1/DTD/svg11.dtd"><svg width="100%" height="100%" viewBox="0 0 172 104" version="1.1" xmlns="http://www.w3.org/2000/svg" xmlns:xlink="http://www.w3.org/1999/xlink" xml:space="preserve" style="fill-rule:evenodd;clip-rule:evenodd;stroke-linejoin:round;stroke-miterlimit:1.41421;"><g id="notfound1"><path id="Fill.-12.-Copy" d="M44.644,100.075l3.597,0l2.385,-2.074l0,-9.669l-2.385,-2.073l-3.597,0l-2.385,2.073l0,9.669l2.385,2.074Zm4.816,3.259l-6.034,0l-4.426,-3.848l0,-12.639l4.426,-3.847l6.034,0l4.425,3.847l0,12.639l-4.425,3.848Z"/><path id="Fill.-14.-Copy" d="M124.644,17.075l3.598,0l2.385,-2.074l0,-9.669l-2.385,-2.073l-3.598,0l-2.385,2.073l0,9.669l2.385,2.074Zm4.816,3.259l-6.034,0l-4.426,-3.848l0,-12.639l4.426,-3.847l6.034,0l4.425,3.847l0,12.639l-4.425,3.848Z" style="fill:#a67a44;"/><path id="Fill.-16.-Copy" d="M88.978,103.257l-5.752,0l-4.226,-3.674l0,-15.583l3.259,0l0,14.099l2.186,1.9l3.314,0l2.186,-1.9l0,-14.099l3.258,0l0,15.583l-4.225,3.674Z" style="fill:#e6e6e6;"/><path id="Fill.-18.-Copy" d="M158,4.259l13.313,0l0,-3.259l-13.313,0l0,3.259Z" style="fill:#e6e6e6;"/><path id="Fill.-20.-Copy" d="M163,20.707l3.258,0l0,-17.707l-3.258,0l0,17.707Z" style="fill:#e6e6e6;"/><path id="Fill.-21.-Copy" d="M0,87.259l13.313,0l0,-3.259l-13.313,0l0,3.259Z" style="fill:#a67a44;"/><path id="Fill.-22.-Copy" d="M2,95.259l9.998,0l0,-3.259l-9.998,0l0,3.259Z" style="fill:#a67a44;"/><path id="Fill.-23.-Copy" d="M0,102.708l3.258,0l0,-17.708l-3.258,0l0,17.708Z" style="fill:#a67a44;"/><path id="Fill.-24.-Copy" d="M161.259,99.994l4.565,0l2.198,-1.993l0,-9.12l-3.061,-1.623l-3.701,0l-0.001,12.736Zm0,3.26l-3.259,0l0.001,-19.254l7.771,0l5.508,2.921l0,12.524l-4.199,3.808l-5.822,0.001Z" style="fill:#a67a44;"/><path id="Fill.-25.-Copy" d="M91.197,20.271l-7.924,-13.493l0.035,13.473l-3.258,0.009l-0.05,-19.26l3.66,0l7.432,12.658l0,-12.658l3.259,0l0,19.24l-3.154,0.031Z"/><path id="Fill.-26.-Copy" d="M129.197,103.271l-7.924,-13.494l0.035,13.474l-3.259,0.009l-0.049,-19.26l3.66,0l7.432,12.657l0,-12.657l3.258,0l0,19.24l-3.153,0.031Z"/></g></svg>