<?xml version="1.0" encoding="UTF-8" standalone="no"?><!DOCTYPE svg PUBLIC "-//W3C//DTD SVG 1.1//EN" "http://www.w3.org/Graphics/SVG/1.1/DTD/svg11.dtd"><svg width="100%" height="100%" viewBox="0 0 353 153" version="1.1" xmlns="http://www.w3.org/2000/svg" xmlns:xlink="http://www.w3.org/1999/xlink" xml:space="preserve" style="fill-rule:evenodd;clip-rule:evenodd;stroke-linejoin:round;stroke-miterlimit:1.41421;"><g id="_404"><path id="Fill.-2.-Copy" d="M314,152.169l19.994,0l0,-76.169l-19.994,0l0,76.169Z" style="fill:#a67a44;"/><path id="Fill.-3.-Copy" d="M8,134.994l93.409,0l0,-19.994l-93.409,0l0,19.994Z"/><path id="Fill.-4.-Copy" d="M19.994,134.763l-19.994,0l0,-30.647l56.924,-104.116l17.542,9.59l-54.472,99.637l0,25.536Z" style="fill:#a67a44;"/><path id="Fill.-5.-Copy" d="M63,152.169l19.994,0l0,-76.169l-19.994,0l0,76.169Z" style="fill:#e6e6e6;"/><path id="Fill.-6.-Copy" d="M259,134.994l93.409,0l0,-19.994l-93.409,0l0,19.994Z" style="fill:#e6e6e6;"/><path id="Fill.-7.-Copy" d="M270.994,134.763l-19.994,0l0,-30.647l56.924,-104.116l17.542,9.59l-54.472,99.637l0,25.536Z"/><path id="Fill.-8.-Copy" d="M176.97,21.595l-11.257,0l-16.118,16.537l0,76.955l16.118,16.538l11.256,0l0.001,20.595l-19.942,0l-28.028,-28.755l0,-93.711l28.028,-28.754l19.942,0c0,0.303 0,20.595 0,20.595Z"/><path id="Fill.-10.-Copy" d="M177.001,1l19.942,0l28.028,28.754l0,93.711l-28.028,28.755l-19.942,0l-0.001,-20.595l11.258,0l16.118,-16.538l0,-76.955l-16.118,-16.537l-11.257,0l0,-20.595Z" style="fill:#a67a44;"/></g></svg>