<?xml version="1.0" encoding="UTF-8" standalone="no"?><!DOCTYPE svg PUBLIC "-//W3C//DTD SVG 1.1//EN" "http://www.w3.org/Graphics/SVG/1.1/DTD/svg11.dtd"><svg width="100%" height="100%" viewBox="0 0 352 152" version="1.1" xmlns="http://www.w3.org/2000/svg" xmlns:xlink="http://www.w3.org/1999/xlink" xml:space="preserve" xmlns:serif="http://www.serif.com/" style="fill-rule:evenodd;clip-rule:evenodd;stroke-linejoin:round;stroke-miterlimit:1.41421;"><g id="_500" serif:id="500"><path id="Fill-1" d="M196.551,0l-8.686,20.594l16.119,16.538l20.594,-8.378l-28.026,-28.754l-0.001,0Z" style="fill:#a67a44;"/><path id="Fill-2" d="M156.666,0l8.685,20.594l22.514,0l8.686,-20.594l-39.885,0Z" style="fill:#a67a44;"/><path id="Fill-3" d="M203.983,37.132l0,76.955l20.595,8.378l0,-93.711l-20.595,8.378Z" style="fill:#e6e6e6;"/><path id="Fill-4" d="M156.665,0l-28.027,28.754l20.595,8.378l16.118,-16.538l-8.685,-20.594l-0.001,0Z" style="fill:#e6e6e6;"/><path id="Fill-5" d="M165.351,130.625l-8.685,20.595l39.885,0l-8.686,-20.595l-22.514,0Z" style="fill:#a67a44;"/><path id="Fill-6" d="M149.233,37.132l-20.595,-8.378l0,93.711l20.595,-8.378l0,-76.955Z"/><path id="Fill-7" d="M187.865,130.625l8.686,20.595l28.027,-28.755l-20.595,-8.378l-16.118,16.538Z"/><path id="Fill-8" d="M128.638,122.465l28.028,28.755l8.685,-20.595l-16.118,-16.537l-20.595,8.377Z" style="fill:#a67a44;"/><path id="Fill-9" d="M323.214,0l-8.686,20.594l16.119,16.538l20.595,-8.378l-28.027,-28.754l-0.001,0Z" style="fill:#e6e6e6;"/><path id="Fill-10" d="M283.329,0l8.685,20.594l22.514,0l8.686,-20.594l-39.885,0Z" style="fill:#e6e6e6;"/><path id="Fill-11" d="M330.647,37.132l0,76.955l20.594,8.378l0.002,0l0,-93.711l-20.596,8.378Z"/><path id="Fill-12" d="M283.328,0l-28.027,28.754l20.595,8.378l16.118,-16.538l-8.685,-20.594l-0.001,0Z"/><path id="Fill-13" d="M292.014,130.625l-8.685,20.595l39.885,0l-8.686,-20.595l-22.514,0Z" style="fill:#e6e6e6;"/><path id="Fill-14" d="M275.896,37.132l-20.595,-8.378l0,93.711l20.595,-8.378l0,-76.955Z" style="fill:#a67a44;"/><path id="Fill-15" d="M314.528,130.625l8.686,20.595l28.027,-28.755l-20.595,-8.378l-16.118,16.538Z" style="fill:#a67a44;"/><path id="Fill-16" d="M255.301,122.465l28.028,28.755l8.685,-20.595l-16.118,-16.537l-20.595,8.377Z" style="fill:#e6e6e6;"/><path id="Fill-17" d="M3.239,82.201l19.994,0l0,-82.201l-19.994,0l0,82.201Z" style="fill:#e6e6e6;"/><path id="Fill-18" d="M23.234,19.994l65.944,0l0,-19.993l-65.944,0l0,19.993Z" style="fill:#a67a44;"/><path id="Fill-19" d="M32.116,131.225l-8.272,19.995l50.452,0l-8.282,-19.995l-33.898,0Z"/><path id="Fill-20" d="M66.015,62.207l-42.171,0l0,19.994l42.171,0l8.281,-19.994l-8.281,0Z"/><path id="Fill-21" d="M0,127.223l23.844,23.997l8.272,-19.996l0,-0.009l-17.978,-18.131l-14.138,14.139Z" style="fill:#a67a44;"/><path id="Fill-22" d="M66.014,131.225l8.282,19.995l0.001,0l23.617,-23.617l-19.994,-8.282l-11.906,11.904Z" style="fill:#e6e6e6;"/><path id="Fill-23" d="M74.297,62.207l-8.282,19.994l11.906,11.905l19.994,-8.282l-23.618,-23.617Z" style="fill:#a67a44;"/><path id="Fill-24" d="M97.914,93.458l0,-7.635l-19.994,8.283l0,25.215l19.994,8.282l0,-34.146Z" style="fill:#e6e6e6;"/></g></svg>