<?xml version="1.0" encoding="UTF-8" standalone="no"?><!DOCTYPE svg PUBLIC "-//W3C//DTD SVG 1.1//EN" "http://www.w3.org/Graphics/SVG/1.1/DTD/svg11.dtd"><svg width="100%" height="100%" viewBox="0 0 106 38" version="1.1" xmlns="http://www.w3.org/2000/svg" xmlns:xlink="http://www.w3.org/1999/xlink" xml:space="preserve" xmlns:serif="http://www.serif.com/" style="fill-rule:evenodd;clip-rule:evenodd;stroke-linejoin:round;stroke-miterlimit:1.41421;"><g id="_500error2" serif:id="500error2"><g id="Page-1"><path id="Fill-1" d="M19.299,1.935l6.532,0l0,-1.786l-6.532,0l0,1.786Z" style="fill:#a67a44;"/><path id="Fill-2" d="M19.301,10.423l6.531,0l0,-1.786l-6.531,0l0,1.786Z" style="fill:#a67a44;"/><path id="Fill-3" d="M20.02,6.059l5.216,0l0,-1.785l-5.216,0l0,1.785Z" style="fill:#a67a44;"/><path id="Fill-4" d="M19.3,10.363l1.771,0l0,-9.313l-1.771,0l0,9.313Z" style="fill:#a67a44;"/><path id="Fill-5" d="M79.61,1.935l6.532,0l0,-1.786l-6.532,0l0,1.786Z" style="fill:#a67a44;"/><path id="Fill-6" d="M79.611,10.423l6.53,0l0,-1.786l-6.53,0l0,1.786Z" style="fill:#a67a44;"/><path id="Fill-7" d="M80.33,6.059l5.216,0l0,-1.785l-5.216,0l0,1.785Z" style="fill:#a67a44;"/><path id="Fill-8" d="M79.61,10.363l1.772,0l-0.001,-9.313l-1.771,0l0,9.313Z" style="fill:#a67a44;"/><path id="Fill-9" d="M1.954,0l-1.677,1.852l0,2.536l1.534,1.716l2.157,0l0.869,0.805l0,1.061l-0.869,0.805l-1.474,0l-1.426,-1.085l-1.068,1.423l1.899,1.448l2.76,0l1.949,-1.806l0,-2.631l-1.949,-1.806l-2.06,0l-0.551,-0.616l0,-1.157l0.687,-0.759l1.445,0l1.348,0.968l1.029,-1.454l-1.809,-1.3l-2.794,0Z"/><path id="Fill-10" d="M102.628,6.238l1.567,4.413l1.668,-0.602l-1.567,-4.413l-1.668,0.602Z" style="fill:#e6e6e6;"/><path id="Fill-11" d="M100.222,0l-1.389,1.692l0.047,8.872l1.771,-0.01l-0.019,-3.551l3.608,0l1.62,-2.198l0,-2.635l-1.799,-2.17l-3.839,0Zm0.386,2.331l0.448,-0.545l2.176,0l0.856,1.032l0,1.396l-0.739,1.003l-2.727,0l-0.014,-2.886Z" style="fill:#e6e6e6;"/><path id="Fill-12" d="M42.318,6.238l1.567,4.413l1.667,-0.602l-1.566,-4.413l-1.668,0.602Z" style="fill:#e6e6e6;"/><path id="Fill-13" d="M39.912,0l-1.389,1.692l0.047,8.872l1.771,-0.01l-0.019,-3.551l3.608,0l1.62,-2.198l0,-2.635l-1.799,-2.17l-3.839,0Zm0.386,2.331l0.448,-0.545l2.177,0l0.855,1.032l0,1.396l-0.739,1.003l-2.726,0l-0.015,-2.886Z" style="fill:#e6e6e6;"/><path id="Fill-14" d="M62.686,8.637l-0.21,0l-2.536,-8.496l-1.695,0.514l2.914,9.768l2.844,0l2.915,-9.768l-1.696,-0.514l-2.536,8.496Z"/></g><g id="Page-11" serif:id="Page-1"><path id="Fill-15" serif:id="Fill-1" d="M0,28.934l6.552,0l0,-1.785l-6.552,0l0,1.785Z" style="fill:#a67a44;"/><path id="Fill-21" serif:id="Fill-2" d="M0.002,37.423l6.551,0l0,-1.785l-6.551,0l0,1.785Z" style="fill:#a67a44;"/><path id="Fill-31" serif:id="Fill-3" d="M0.723,33.059l5.232,0l0,-1.785l-5.232,0l0,1.785Z" style="fill:#a67a44;"/><path id="Fill-41" serif:id="Fill-4" d="M0.001,37.364l1.776,0l0,-9.313l-1.776,0l0,9.313Z" style="fill:#a67a44;"/><path id="Fill-51" serif:id="Fill-5" d="M23.09,33.238l1.572,4.413l1.672,-0.602l-1.571,-4.412l-1.673,0.601Z"/><path id="Fill-61" serif:id="Fill-6" d="M20.676,27l-1.393,1.692l0.047,8.872l1.777,-0.01l-0.019,-3.551l3.619,0l1.624,-2.199l0,-2.634l-1.804,-2.17l-3.851,0Zm0.387,2.331l0.45,-0.546l2.184,0l0.858,1.033l0,1.396l-0.742,1.004l-2.734,0l-0.016,-2.887Z"/><path id="Fill-71" serif:id="Fill-7" d="M42.872,33.238l1.572,4.413l1.673,-0.602l-1.572,-4.412l-1.673,0.601Z" style="fill:#e6e6e6;"/><path id="Fill-81" serif:id="Fill-8" d="M40.459,27l-1.393,1.692l0.046,8.872l1.777,-0.01l-0.019,-3.551l3.619,0l1.625,-2.199l0,-2.634l-1.804,-2.17l-3.851,0Zm0.386,2.332l0.45,-0.547l2.184,0l0.858,1.033l0,1.396l-0.742,1.004l-2.734,0l-0.016,-2.886Z" style="fill:#e6e6e6;"/><path id="Fill-91" serif:id="Fill-9" d="M82.277,33.238l1.572,4.413l1.672,-0.602l-1.571,-4.412l-1.673,0.601Z" style="fill:#a67a44;"/><path id="Fill-101" serif:id="Fill-10" d="M79.863,27l-1.393,1.692l0.047,8.872l1.777,-0.01l-0.019,-3.551l3.619,0l1.624,-2.199l0,-2.634l-1.804,-2.17l-3.851,0Zm0.387,2.331l0.45,-0.546l2.183,0l0.859,1.033l0,1.396l-0.742,1.004l-2.735,0l-0.015,-2.887Z" style="fill:#a67a44;"/><path id="Fill-111" serif:id="Fill-11" d="M60.865,27.019l-2.018,2.038l0,6.439l2.018,2.038l2.857,0l2.017,-2.038l0,-6.439l-2.017,-2.038l-2.857,0Zm-0.241,7.74l0,-4.966l0.979,-0.989l1.38,0l0.98,0.989l0,4.966l-0.98,0.989l-1.38,0l-0.979,-0.989Z"/></g></g></svg>