<?xml version="1.0" encoding="UTF-8" standalone="no"?><!DOCTYPE svg PUBLIC "-//W3C//DTD SVG 1.1//EN" "http://www.w3.org/Graphics/SVG/1.1/DTD/svg11.dtd"><svg width="100%" height="100%" viewBox="0 0 199 103" version="1.1" xmlns="http://www.w3.org/2000/svg" xmlns:xlink="http://www.w3.org/1999/xlink" xml:space="preserve" xmlns:serif="http://www.serif.com/" style="fill-rule:evenodd;clip-rule:evenodd;stroke-linejoin:round;stroke-miterlimit:1.41421;"><g id="_500error1" serif:id="500error1"><path id="Fill-1" d="M36.101,3.589l12.218,0l0,-3.312l-12.218,0l0,3.312Z" style="fill:#a67a44;"/><path id="Fill-2" d="M36.104,19.34l12.215,0l0,-3.312l-12.215,0l0,3.312Z" style="fill:#a67a44;"/><path id="Fill-3" d="M37.449,11.244l9.756,0l0,-3.314l-9.756,0l0,3.314Z" style="fill:#a67a44;"/><path id="Fill-4" d="M36.102,19.23l3.313,0l0,-17.28l-3.313,0l0,17.28Z" style="fill:#a67a44;"/><path id="Fill-5" d="M148.915,3.589l12.219,0l0,-3.312l-12.219,0l0,3.312Z" style="fill:#a67a44;"/><path id="Fill-6" d="M148.918,19.34l12.216,0l0,-3.312l-12.216,0l0,3.312Z" style="fill:#a67a44;"/><path id="Fill-7" d="M150.263,11.244l9.757,0l0,-3.314l-9.757,0l0,3.314Z" style="fill:#a67a44;"/><path id="Fill-8" d="M148.916,19.23l3.314,0l0,-17.28l-3.314,0l0,17.28Z" style="fill:#a67a44;"/><path id="Fill-9" d="M3.655,0l-3.137,3.437l0,4.706l2.87,3.182l4.035,0l1.624,1.494l0,1.971l-1.624,1.494l-2.758,0l-2.666,-2.016l-1.999,2.643l3.552,2.685l5.164,0l3.645,-3.351l0,-4.88l-3.645,-3.353l-3.854,0l-1.03,-1.142l0,-2.148l1.285,-1.409l2.703,0l2.521,1.798l1.923,-2.698l-3.383,-2.413l-5.226,0Z"/><path id="Fill-10" d="M191.973,11.575l2.931,8.187l3.119,-1.115l-2.93,-8.189l-3.12,1.117Z" style="fill:#e6e6e6;"/><path id="Fill-11" d="M187.473,0l-2.599,3.139l0.087,16.463l3.314,-0.018l-0.035,-6.589l6.748,0l3.031,-4.079l0,-4.889l-3.366,-4.027l-7.18,0Zm0.721,4.326l0.838,-1.013l4.072,0l1.6,1.916l0,2.591l-1.383,1.861l-5.1,0l-0.027,-5.355Z" style="fill:#e6e6e6;"/><path id="Fill-12" d="M82.09,19.763l-2.931,-8.188l3.12,-1.117l2.93,8.189l-3.119,1.116Z" style="fill:#e6e6e6;"/><path id="Fill-13" d="M74.659,0l-2.599,3.139l0.087,16.463l3.314,-0.018l-0.035,-6.589l6.748,0l3.03,-4.079l0,-4.889l-3.365,-4.027l-7.18,0Zm0.721,4.326l0.838,-1.013l4.072,0l1.6,1.916l0,2.591l-1.382,1.861l-5.1,0l-0.028,-5.355Z" style="fill:#e6e6e6;"/><path id="Fill-14" d="M119.722,19.34l-5.32,0l-5.452,-18.123l3.173,-0.955l4.743,15.766l0.392,0l4.744,-15.766l3.172,0.955l-5.452,18.123Z"/><path id="Fill-15" d="M38.542,86.872l12.219,0l0,-3.313l-12.219,0l0,3.313Z" style="fill:#a67a44;"/><path id="Fill-16" d="M38.546,102.623l12.216,0l0,-3.314l-12.216,0l0,3.314Z" style="fill:#a67a44;"/><path id="Fill-17" d="M39.89,94.525l9.757,0l0,-3.313l-9.757,0l0,3.313Z" style="fill:#a67a44;"/><path id="Fill-18" d="M38.544,102.512l3.313,0l0,-17.281l-3.313,0l0,17.281Z" style="fill:#a67a44;"/><path id="Fill-19" d="M81.6,94.856l2.931,8.189l3.12,-1.117l-2.931,-8.188l-3.12,1.116Z"/><path id="Fill-20" d="M77.1,83.282l-2.599,3.14l0.089,16.461l3.312,-0.018l-0.035,-6.588l6.748,0l3.031,-4.08l0,-4.888l-3.366,-4.027l-7.18,0Zm0.721,4.326l0.838,-1.013l4.072,0l1.601,1.915l0,2.591l-1.384,1.863l-5.098,0l-0.029,-5.356Z"/><path id="Fill-21" d="M118.491,94.856l2.931,8.189l3.119,-1.117l-2.93,-8.188l-3.12,1.116Z" style="fill:#e6e6e6;"/><path id="Fill-22" d="M113.991,83.282l-2.6,3.138l0.088,16.463l3.314,-0.018l-0.035,-6.588l6.747,0l3.031,-4.079l0,-4.889l-3.366,-4.027l-7.179,0Zm0.72,4.326l0.839,-1.013l4.071,0l1.601,1.916l0,2.59l-1.383,1.863l-5.099,0l-0.029,-5.356Z" style="fill:#e6e6e6;"/><path id="Fill-23" d="M191.973,94.856l2.931,8.189l3.119,-1.117l-2.93,-8.188l-3.12,1.116Z" style="fill:#a67a44;"/><path id="Fill-24" d="M187.473,83.282l-2.599,3.14l0.087,16.461l3.314,-0.018l-0.036,-6.588l6.749,0l3.031,-4.08l0,-4.888l-3.366,-4.027l-7.18,0Zm0.721,4.326l0.838,-1.013l4.072,0l1.6,1.915l0,2.591l-1.383,1.863l-5.1,0l-0.027,-5.356Z" style="fill:#a67a44;"/><path id="Fill-25" d="M152.043,83.316l-3.761,3.782l0,11.949l3.761,3.781l5.328,0l3.762,-3.781l0,-11.949l-3.762,-3.782l-5.328,0Zm-0.448,14.363l0,-9.215l1.825,-1.835l2.573,0l1.827,1.835l0,9.215l-1.827,1.836l-2.573,0l-1.825,-1.836Z"/></g></svg>