<?xml version="1.0" encoding="UTF-8"?>
<svg width="21px" height="19px" viewBox="0 0 21 19" version="1.1" xmlns="http://www.w3.org/2000/svg" xmlns:xlink="http://www.w3.org/1999/xlink">
    <!-- Generator: Sketch 46.2 (44496) - http://www.bohemiancoding.com/sketch -->
    <title>logout</title>
    <desc>Created with Sketch.</desc>
    <defs></defs>
    <g id="Mobile-Header-style-test" stroke="none" stroke-width="1" fill="none" fill-rule="evenodd">
        <g id="Page-1-Copy">
            <path d="M10.125,18.2715 C4.542,18.2715 0,13.7295 0,8.1465 C0,5.9355 0.701,3.8335 2.027,2.0695 L5.224,4.4725 C4.423,5.5385 4,6.8095 4,8.1465 C4,11.5235 6.748,14.2715 10.125,14.2715 C13.502,14.2715 16.25,11.5235 16.25,8.1465 C16.25,6.8075 15.826,5.5355 15.023,4.4685 L18.219,2.0635 C19.548,3.8295 20.25,5.9335 20.25,8.1465 C20.25,13.7295 15.708,18.2715 10.125,18.2715 Z" id="Fill-1" fill="#E60013"></path>
            <polygon id="Fill-3" fill="#C7000A" points="8.125 8.2545 12.125 8.2545 12.125 -0.0005 8.125 -0.0005"></polygon>
        </g>
    </g>
</svg>