<?xml version="1.0" encoding="UTF-8"?>
<svg width="219px" height="40px" viewBox="0 0 219 40" version="1.1" xmlns="http://www.w3.org/2000/svg" xmlns:xlink="http://www.w3.org/1999/xlink">
    <!-- Generator: Sketch 45.2 (43514) - http://www.bohemiancoding.com/sketch -->
    <title>Logo</title>
    <desc>Created with Sketch.</desc>
    <defs></defs>
    <g id="Header" stroke="none" stroke-width="1" fill="none" fill-rule="evenodd">
        <g id="Logo">
            <g id="Typography" transform="translate(44.992342, 6.152799)" fill="#231916">
                <g id="Group">
                    <path d="M78.870461,4.13271969 C78.870461,4.13271969 79.7656932,3.73547961 79.9891167,2.76679833 L81.9764708,2.76679833 L81.9764708,4.43113044 L78.7712471,4.43113044 L78.870461,4.13271969 L78.870461,4.13271969 Z" id="Fill-8"></path>
                    <path d="M85.1109758,9.46104359 C85.1109758,9.46104359 86.0054389,9.06341896 86.229247,8.09396857 L88.2173702,8.09396857 L88.2173702,9.75868524 L85.0121464,9.75868524 L85.1109758,9.46104359 Z" id="Fill-10"></path>
                    <path d="M81.3561533,14.1745875 C81.3561533,14.1745875 82.2498474,13.7761938 82.4744245,12.8075125 L84.4617786,12.8075125 L84.4617786,14.4729983 L81.2561703,14.4729983 L81.3561533,14.1745875 Z" id="Fill-12"></path>
                    <polygon id="Fill-14" points="68.1107154 4.73727065 81.9695105 4.73727065 81.9695105 4.1146843 68.1107154 4.1146843"></polygon>
                    <polygon id="Fill-16" points="65.3427249 10.0486743 88.2245997 10.0486743 88.2245997 9.4268571 65.3427249 9.4268571"></polygon>
                    <polygon id="Fill-17" points="72.755694 14.7863295 83.5438579 14.7863295 83.5438579 14.116059 72.755694 14.116059"></polygon>
                    <polygon id="Fill-18" points="71.573203 19.4743778 83.6315353 19.4743778 83.6315353 18.8517915 71.573203 18.8517915"></polygon>
                    <polygon id="Fill-19" points="71.573203 23.7417284 83.6315353 23.7417284 83.6315353 23.1187575 71.573203 23.1187575"></polygon>
                    <polygon id="Fill-20" points="70.595677 26.3101374 72.539577 26.3101374 72.539577 15.2051044 70.595677 15.2051044"></polygon>
                    <polygon id="Fill-21" points="82.4698099 26.3535916 84.4713923 26.3535916 84.4713923 14.2548815 82.4698099 14.2548815"></polygon>
                    <polygon id="Fill-22" points="74.4288708 10.0256014 76.4589099 10.0256014 76.4589099 0.462229022 74.4288708 0.462229022"></polygon>
                    <path d="M84.2181277,2.01319582 C84.2181277,2.01319582 78.9932478,12.3852767 63.5143438,18.5526885 L63.7116179,19.1025949 C63.7116179,19.1025949 78.7952046,14.8206314 86.064352,3.15261728 L84.2181277,2.01319582 Z" id="Fill-23"></path>
                    <path d="M54.65116,4.25439129 C54.65116,4.25439129 55.5452386,3.85676666 55.7690467,2.88808538 L57.7567853,2.88808538 L57.7567853,4.55280204 L54.5507925,4.55280204 L54.65116,4.25439129 Z" id="Fill-36"></path>
                    <path d="M53.9560091,19.658731 C53.9560091,19.658731 54.8504722,19.2603373 55.0746648,18.291656 L57.0624035,18.291656 L57.0624035,19.9563727 L53.8560261,19.9563727 L53.9560091,19.658731 Z" id="Fill-37"></path>
                    <polygon id="Fill-38" points="41.5013981 4.88532237 57.745941 4.88532237 57.745941 4.26350513 41.5013981 4.26350513"></polygon>
                    <polygon id="Fill-39" points="43.260714 7.13955409 55.4024937 7.13955409 55.4024937 6.46928355 43.260714 6.46928355"></polygon>
                    <polygon id="Fill-40" points="43.2895553 9.47954044 55.4317195 9.47954044 55.4317195 8.8569541 43.2895553 8.8569541"></polygon>
                    <polygon id="Fill-41" points="43.260714 11.6876262 55.4024937 11.6876262 55.4024937 11.0650398 43.260714 11.0650398"></polygon>
                    <polygon id="Fill-42" points="43.260714 13.9553171 55.4024937 13.9553171 55.4024937 13.3327308 43.260714 13.3327308"></polygon>
                    <polygon id="Fill-43" points="32.5144661 9.75987735 38.7176411 9.75987735 38.7176411 9.137291 32.5144661 9.137291"></polygon>
                    <polygon id="Fill-44" points="37.019084 14.4967634 39.051815 14.4967634 39.051815 9.09614416 37.019084 9.09614416"></polygon>
                    <path d="M55.2910511,4.26039027 C55.2910511,4.26039027 55.9982384,3.94621298 56.1751314,3.17980496 L57.7456333,3.17980496 L57.7456333,4.49611938 L55.2118338,4.49611938 L55.2910511,4.26039027 Z" id="Fill-45"></path>
                    <path d="M36.5960791,9.11364118 C36.5960791,9.11364118 37.3032664,8.79946388 37.4801594,8.03344041 L39.0502768,8.03344041 L39.0502768,9.34937029 L36.5168618,9.34937029 L36.5960791,9.11364118 Z" id="Fill-46"></path>
                    <polygon id="Fill-47" points="34.0557422 20.1657986 57.0618266 20.1657986 57.0618266 19.5432122 34.0557422 19.5432122"></polygon>
                    <path d="M54.5859788,19.5402512 C54.5859788,19.5402512 55.2931661,19.226843 55.4700591,18.4600504 L57.0413301,18.4600504 L57.0413301,19.7767494 L54.5067615,19.7767494 L54.5859788,19.5402512 Z" id="Fill-48"></path>
                    <path d="M53.418639,6.50873838 C53.418639,6.50873838 54.1588976,6.17994818 54.3450198,5.37777702 L55.9901244,5.37777702 L55.9901244,6.75561943 L53.3363453,6.75561943 L53.418639,6.50873838 Z" id="Fill-49"></path>
                    <path d="M36.9930115,9.1322534 C36.9930115,9.1322534 37.5852184,8.86768304 37.7340393,8.22548465 L39.0518919,8.22548465 L39.0518919,9.32991206 L36.9260999,9.32991206 L36.9930115,9.1322534 Z" id="Fill-50"></path>
                    <path d="M34.4679028,2.29203298 L34.7916939,1.79134896 C34.7916939,1.79134896 37.7377309,2.49853629 39.0640437,5.06117706 L37.5316122,6.15214522 C37.5316122,6.15214522 35.8518981,2.96999451 34.4679028,2.29203298" id="Fill-51"></path>
                    <path d="M43.7483618,0.566249779 L44.0306214,0.221308487 C44.0306214,0.221308487 45.9752905,0.4408865 47.3546711,2.51053425 L45.6622668,3.4196103 C45.6622668,3.4196103 45.0346813,1.53877656 43.7483618,0.566249779" id="Fill-52"></path>
                    <path d="M51.1175306,0.82685927 C51.1175306,0.82685927 50.1846125,3.9136416 49.8308266,4.49238925 L50.377272,4.49238925 C50.377272,4.49238925 52.2427238,2.56348678 53.4963565,0.890694559 L51.1175306,0.82685927 Z" id="Fill-53"></path>
                    <polygon id="Fill-54" points="33.1717388 15.7030197 37.1783646 13.8760229 37.4733144 14.3778606 34.4680567 17.9126436"></polygon>
                    <path d="M38.9459868,13.3491511 C38.9459868,13.3491511 39.878905,15.6379923 45.6136982,15.7756612 C45.6136982,15.7756612 53.1081918,16.1686712 56.8894713,15.5003234 L56.8894713,17.1200477 C56.8894713,17.1200477 40.9787178,18.8882083 38.6814165,13.8790609 L38.9459868,13.3491511 Z" id="Fill-55"></path>
                    <polygon id="Fill-56" points="42.3812483 14.7444136 44.3547586 14.7444136 44.3547586 5.6009698 42.3812483 5.6009698"></polygon>
                    <polygon id="Fill-57" points="53.9827353 14.7774849 55.9850868 14.7774849 55.9850868 6.50158575 53.9827353 6.50158575"></polygon>
                    <path d="M40.850355,21.8419364 L41.1737615,21.5177608 C41.1737615,21.5177608 43.472601,22.047286 44.8273705,24.0515603 L43.2960926,25.3767194 C43.2960926,25.3767194 41.4683268,22.047286 40.850355,21.8419364" id="Fill-58"></path>
                    <path d="M49.7244601,18.0206252 L51.7233506,18.0206252 L51.7233506,24.6541116 C51.7233506,25.3101538 51.5664542,25.9450457 51.0303916,26.3384403 C50.7289045,26.5603256 50.1251611,26.8606591 49.7367656,26.7487551 C49.2283906,26.6014725 49.3229899,25.9519676 49.050344,25.6131791 C48.7623161,25.2563168 48.0743563,25.1694085 47.644814,25.1694085 L47.6609651,24.7510182 L48.8865257,24.7510182 C48.8865257,24.7510182 49.7483021,24.8798424 49.7483021,24.041139 C49.7483021,23.2035892 49.7244601,18.0206252 49.7244601,18.0206252" id="Fill-59"></path>
                    <polygon id="Fill-84" points="1.03597752 5.70018368 13.5703826 5.70018368 13.5703826 5.08375014 1.03597752 5.08375014"></polygon>
                    <polygon id="Fill-85" points="15.5842707 3.25713795 23.2268161 3.25713795 23.2268161 2.64031985 15.5842707 2.64031985"></polygon>
                    <polygon id="Fill-86" points="16.0511143 13.4838589 24.9019156 13.4838589 24.9019156 12.9154941 16.0511143 12.9154941"></polygon>
                    <polygon id="Fill-87" points="5.80016667 10.0571344 7.81367013 10.0571344 7.81367013 0.929457192 5.80016667 0.929457192"></polygon>
                    <polygon id="Fill-88" points="14.8340137 26.3958921 16.7044646 26.3958921 16.7044646 1.209025 14.8340137 1.209025"></polygon>
                    <polygon id="Fill-89" points="5.80016667 26.545482 7.81367013 26.545482 7.81367013 14.7797922 5.80016667 14.7797922"></polygon>
                    <path d="M10.4994438,5.07813571 C10.4994438,5.07813571 11.3846777,4.68435658 11.6061785,3.72528904 L13.5743051,3.72528904 L13.5743051,5.37347006 L10.4006144,5.37347006 L10.4994438,5.07813571 Z" id="Fill-90"></path>
                    <path d="M10.4994438,19.2229206 C10.4994438,19.2229206 11.3846777,18.8291415 11.6061785,17.8693048 L13.5743051,17.8693048 L13.5743051,19.5186395 L10.4006144,19.5186395 L10.4994438,19.2229206 Z" id="Fill-91"></path>
                    <path d="M21.2221573,2.70473197 C21.2221573,2.70473197 22.1081603,2.31095283 22.3304302,1.35150075 L24.2977876,1.35150075 L24.2977876,3.00006632 L21.1233279,3.00006632 L21.2221573,2.70473197 Z" id="Fill-92"></path>
                    <path d="M10.5944661,14.4451568 C10.5944661,14.4451568 11.4797,14.0513777 11.7008162,13.090772 L13.6693273,13.090772 L13.6693273,14.7404912 L10.4956367,14.7404912 L10.5944661,14.4451568 Z" id="Fill-93"></path>
                    <path d="M10.5535115,9.68277508 C10.5535115,9.68277508 11.43913,9.28899595 11.6610153,8.32992841 L13.6283728,8.32992841 L13.6283728,9.97695578 L10.4546822,9.97695578 L10.5535115,9.68277508 Z" id="Fill-94"></path>
                    <polygon id="Fill-95" points="0.0392240934 10.307861 13.6257578 10.307861 13.6257578 9.69104291 0.0392240934 9.69104291"></polygon>
                    <polygon id="Fill-96" points="0.11574953 15.0405171 13.6576755 15.0405171 13.6576755 14.4240835 0.11574953 14.4240835"></polygon>
                    <path d="M11.2236667,14.3937041 C11.2236667,14.3937041 11.9243167,14.0814495 12.0981332,13.3235016 L13.6540223,13.3235016 L13.6540223,14.6263568 L11.1452185,14.6263568 L11.2236667,14.3937041 Z" id="Fill-97"></path>
                    <polygon id="Fill-98" points="1.04443762 19.7243353 13.5773045 19.7243353 13.5773045 19.1071326 1.04443762 19.1071326"></polygon>
                    <path d="M2.91265812,10.993975 L3.34066219,10.7417102 C3.34066219,10.7417102 4.95500282,12.3752784 5.6741112,13.8534883 L4.09937922,14.5341417 C4.09937922,14.5341417 3.30259175,11.4031361 2.91265812,10.993975" id="Fill-99"></path>
                    <path d="M8.90398456,10.5463204 L11.2962697,11.5007734 C11.2962697,11.5007734 9.05857363,13.8926739 8.3198532,14.4752671 L8.00875231,14.2810694 C8.00875231,14.2810694 8.63133865,12.3744708 8.90398456,10.5463204" id="Fill-100"></path>
                    <path d="M22.3444278,2.63732036 L22.3444278,9.00508273 L22.3444278,9.45846711 C22.3444278,9.45846711 22.4490254,10.366005 21.6810791,10.366005 L20.878908,10.366005 L20.878908,10.8178511 C20.878908,10.8178511 22.0298659,10.8889929 22.0298659,11.5523415 C22.0298659,12.2141519 24.2979415,12.7025304 24.2979415,9.45846711 L24.2979415,2.56733227 L22.3444278,2.63732036 Z" id="Fill-101"></path>
                    <path d="M22.8865278,12.8928826 C22.8865278,12.8928826 22.2051053,20.9738149 17.2436421,26.5920895 L17.4524527,26.9339543 C17.4524527,26.9339543 23.9032779,21.3679786 24.9492537,13.0690064 L22.8865278,12.8928826 Z" id="Fill-102"></path>
                    <path d="M17.8678435,14.2416146 C17.8678435,14.2416146 19.2683744,21.6718884 26.1533564,24.7352132 L24.5778553,26.747563 C24.5778553,26.747563 18.7138534,23.8688222 17.4302257,14.3289074 L17.8678435,14.2416146 Z" id="Fill-103"></path>
                </g>
                <g id="Group" transform="translate(96.137484, 3.076399)">
                    <polygon id="Fill-305" points="2.18505118 7.16762623 3.19487931 7.16762623 3.19487931 0.969450386 1.31096918 0.969450386 1.31096918 2.21769947 0.32344495 2.21769947 0.32344495 0.0384549935 7.20227418 0.0384549935 7.20227418 2.21769947 6.21474995 2.21769947 6.21474995 0.969450386 4.33083982 0.969450386 4.33083982 7.16762623 5.34066795 7.16762623 5.34066795 8.05324473 2.18505118 8.05324473"></polygon>
                    <polygon id="Fill-306" points="10.4016143 7.16762623 11.400675 7.16762623 11.400675 0.912536995 10.4016143 0.912536995 10.4016143 0.0384549935 13.5460791 0.0384549935 13.5460791 0.912536995 12.5354819 0.912536995 12.5354819 3.58054444 16.6905439 3.58054444 16.6905439 0.912536995 15.6807158 0.912536995 15.6807158 0.0384549935 18.824796 0.0384549935 18.824796 0.912536995 17.8257353 0.912536995 17.8257353 7.16762623 18.824796 7.16762623 18.824796 8.05324473 15.6807158 8.05324473 15.6807158 7.16762623 16.6905439 7.16762623 16.6905439 4.51115529 12.5354819 4.51115529 12.5354819 7.16762623 13.5460791 7.16762623 13.5460791 8.05324473 10.4016143 8.05324473"></polygon>
                    <polygon id="Fill-307" points="22.296359 7.16762623 23.2954198 7.16762623 23.2954198 0.912536995 22.296359 0.912536995 22.296359 0.0384549935 28.0969103 0.0384549935 28.0969103 1.90006123 27.1097706 1.90006123 27.1097706 0.969450386 24.4302266 0.969450386 24.4302266 3.5455504 27.2682051 3.5455504 27.2682051 4.47693034 24.4302266 4.47693034 24.4302266 7.12263389 27.3024301 7.12263389 27.3024301 6.15702901 28.2899543 6.15702901 28.2899543 8.05324473 22.296359 8.05324473"></polygon>
                    <path d="M4.02012347,17.7301747 C4.89420548,17.7301747 5.47333768,17.1629635 5.47333768,16.2208162 C5.47333768,15.5966916 5.22338022,15.1652266 4.7242344,14.9610306 C4.46274045,14.8591248 4.12241376,14.8133634 3.73632562,14.8133634 L2.40809015,14.8133634 L2.40809015,17.7301747 L4.02012347,17.7301747 Z M0.273838009,21.0115393 L1.27328329,21.0115393 L1.27328329,14.75645 L0.273838009,14.75645 L0.273838009,13.882368 L3.74786212,13.882368 C4.31545782,13.882368 4.78076324,13.9050565 5.22338022,14.0519545 C6.06362183,14.3365215 6.61929648,15.0406324 6.61929648,16.1304469 C6.61929648,17.2883268 5.98401999,18.1158782 4.96188626,18.3777567 L4.96188626,18.4004452 C4.96188626,18.4004452 5.16646683,18.5138874 5.30259751,18.7749968 L6.43817346,20.7500453 C6.56315219,20.9665469 6.71081937,21.0115393 6.99423267,21.0115393 L7.23265363,21.0115393 L7.23265363,21.8971578 L6.55161569,21.8971578 C5.87057776,21.8971578 5.71137409,21.7725636 5.43949728,21.2949526 L4.20163104,19.1041716 C3.99743503,18.7638449 3.84976785,18.6619392 3.36177399,18.6619392 L2.40809015,18.6619392 L2.40809015,21.0115393 L3.39561438,21.0115393 L3.39561438,21.8971578 L0.273838009,21.8971578 L0.273838009,21.0115393 Z" id="Fill-308"></path>
                    <polygon id="Fill-309" points="10.4547591 21.0116162 11.4538198 21.0116162 11.4538198 14.7565269 10.4547591 14.7565269 10.4547591 13.8824449 16.2553103 13.8824449 16.2553103 15.7440512 15.2681706 15.7440512 15.2681706 14.8134403 12.5886267 14.8134403 12.5886267 17.3895403 15.4269897 17.3895403 15.4269897 18.3209203 12.5886267 18.3209203 12.5886267 20.9666238 15.4612147 20.9666238 15.4612147 20.0010189 16.4487389 20.0010189 16.4487389 21.8972347 10.4547591 21.8972347"></polygon>
                    <path d="M23.5187664,17.9577513 C23.8821661,17.9577513 24.1663485,17.9004534 24.4155368,17.7993167 C24.9266037,17.5720477 25.221938,17.0605963 25.221938,16.3684064 C25.221938,15.7212089 24.9604441,15.2447515 24.5062906,15.0067151 C24.2571022,14.8701999 23.916391,14.8132865 23.5306874,14.8132865 L22.0317118,14.8132865 L22.0317118,17.9577513 L23.5187664,17.9577513 Z M19.8974596,21.0114623 L20.8969049,21.0114623 L20.8969049,14.7567577 L19.8974596,14.7567577 L19.8974596,13.8822911 L23.6325932,13.8822911 C24.120587,13.8822911 24.6085809,13.9169006 25.0062055,14.0980236 C25.8349106,14.4498868 26.3682814,15.3016649 26.3682814,16.3684064 C26.3682814,17.4920613 25.7776127,18.4003683 24.8585383,18.7183911 C24.4836022,18.8549063 24.0978986,18.8887467 23.6548971,18.8887467 L22.0317118,18.8887467 L22.0317118,21.0114623 L23.042309,21.0114623 L23.042309,21.8970808 L19.8974596,21.8970808 L19.8974596,21.0114623 Z" id="Fill-310"></path>
                    <path d="M33.642851,21.0224989 C35.2660362,21.0224989 36.5831198,19.6377346 36.5831198,17.8326572 C36.5831198,16.0841087 35.2660362,14.7454903 33.642851,14.7454903 C32.0081292,14.7454903 30.6910457,16.0841087 30.6910457,17.8326572 C30.6910457,19.6377346 32.0081292,21.0224989 33.642851,21.0224989 M33.642851,13.7464296 C35.9586107,13.7464296 37.7636881,15.528434 37.7636881,17.8326572 C37.7636881,20.1941784 35.9586107,22.0327116 33.642851,22.0327116 C31.3159393,22.0327116 29.5220139,20.1941784 29.5220139,17.8326572 C29.5220139,15.528434 31.3159393,13.7464296 33.642851,13.7464296" id="Fill-311"></path>
                    <path d="M44.8449444,17.7301747 C45.7190264,17.7301747 46.297774,17.1629635 46.297774,16.2208162 C46.297774,15.5966916 46.0482011,15.1652266 45.5490553,14.9610306 C45.2875614,14.8591248 44.9472347,14.8133634 44.5611465,14.8133634 L43.2329111,14.8133634 L43.2329111,17.7301747 L44.8449444,17.7301747 Z M41.0990435,21.0115393 L42.0977196,21.0115393 L42.0977196,14.75645 L41.0990435,14.75645 L41.0990435,13.882368 L44.572683,13.882368 C45.1398942,13.882368 45.6051996,13.9050565 46.0482011,14.0519545 C46.8884427,14.3365215 47.4445019,15.0406324 47.4445019,16.1304469 C47.4445019,17.2883268 46.8088409,18.1158782 45.7870917,18.3777567 L45.7870917,18.4004452 C45.7870917,18.4004452 45.9912877,18.5138874 46.127803,18.7749968 L47.2626098,20.7500453 C47.3879731,20.9665469 47.5356403,21.0115393 47.8190536,21.0115393 L48.0574745,21.0115393 L48.0574745,21.8971578 L47.3768212,21.8971578 C46.6953987,21.8971578 46.5358104,21.7725636 46.2639336,21.2949526 L45.0268365,19.1041716 C44.8222559,18.7638449 44.6749733,18.6619392 44.1865949,18.6619392 L43.2329111,18.6619392 L43.2329111,21.0115393 L44.2204353,21.0115393 L44.2204353,21.8971578 L41.0990435,21.8971578 L41.0990435,21.0115393 Z" id="Fill-312"></path>
                    <polygon id="Fill-313" points="52.8233942 21.0116162 53.8336068 21.0116162 53.8336068 14.8134403 51.9493122 14.8134403 51.9493122 16.0616894 50.9617879 16.0616894 50.9617879 13.8824449 57.8406172 13.8824449 57.8406172 16.0616894 56.8534775 16.0616894 56.8534775 14.8134403 54.9691828 14.8134403 54.9691828 21.0116162 55.9793955 21.0116162 55.9793955 21.8972347 52.8233942 21.8972347"></polygon>
                    <polygon id="Fill-314" points="61.0401495 21.0116162 62.0392103 21.0116162 62.0392103 14.7565269 61.0401495 14.7565269 61.0401495 13.8824449 66.8410853 13.8824449 66.8410853 15.7440512 65.8531765 15.7440512 65.8531765 14.8134403 63.1744017 14.8134403 63.1744017 17.3895403 66.0119956 17.3895403 66.0119956 18.3209203 63.1744017 18.3209203 63.1744017 20.9666238 66.0466051 20.9666238 66.0466051 20.0010189 67.0341294 20.0010189 67.0341294 21.8972347 61.0401495 21.8972347"></polygon>
                    <path d="M74.2290202,17.7301747 C75.1031022,17.7301747 75.6818498,17.1629635 75.6818498,16.2208162 C75.6818498,15.5966916 75.4322769,15.1652266 74.9327466,14.9610306 C74.6716372,14.8591248 74.3313105,14.8133634 73.9452223,14.8133634 L72.6169869,14.8133634 L72.6169869,17.7301747 L74.2290202,17.7301747 Z M70.4831193,21.0115393 L71.4817954,21.0115393 L71.4817954,14.75645 L70.4831193,14.75645 L70.4831193,13.882368 L73.9563743,13.882368 C74.5243545,13.882368 74.9892754,13.9050565 75.4322769,14.0519545 C76.2717494,14.3365215 76.8285777,15.0406324 76.8285777,16.1304469 C76.8285777,17.2883268 76.1929167,18.1158782 75.170783,18.3777567 L75.170783,18.4004452 C75.170783,18.4004452 75.374979,18.5138874 75.5118788,18.7749968 L76.6466856,20.7500453 C76.7720489,20.9665469 76.9193315,21.0115393 77.2031294,21.0115393 L77.4411658,21.0115393 L77.4411658,21.8971578 L76.7605124,21.8971578 C76.0787054,21.8971578 75.9198862,21.7725636 75.6476249,21.2949526 L74.4109123,19.1041716 C74.2063317,18.7638449 74.0586646,18.6619392 73.5706707,18.6619392 L72.6169869,18.6619392 L72.6169869,21.0115393 L73.6048956,21.0115393 L73.6048956,21.8971578 L70.4831193,21.8971578 L70.4831193,21.0115393 Z" id="Fill-315"></path>
                </g>
            </g>
            <g id="Icon">
                <polygon id="Fill-1" fill="#C7000D" points="37.3013437 32.3021945 22.6884462 28.8412451 22.6884462 10.7673982 37.3013437 6.53734889"></polygon>
                <polygon id="Fill-2" fill="#E60013" points="0 39.6086433 23.0729961 28.8412451 23.0729961 10.7673982 0 0"></polygon>
            </g>
        </g>
    </g>
</svg>