<svg width="27" height="29" viewBox="0 0 27 29" fill="none" xmlns="http://www.w3.org/2000/svg">
<g filter="url(#filter0_d)">
<path fill-rule="evenodd" clip-rule="evenodd" d="M5.5 5.19V19.13C5.5 20.05 6.02 20.82 6.64 20.82H15.97V22.32H6.64C5.18 22.32 4 20.89 4 19.13V5.19C4 3.43 5.18 2 6.64 2H15.97V3.5H6.64C6.02 3.5 5.5 4.27 5.5 5.19ZM22.455 12.795C22.4525 12.8 22.45 12.805 22.45 12.81C22.4408 12.8283 22.4295 12.8446 22.4191 12.8597C22.4067 12.8775 22.3954 12.8937 22.39 12.91L22.38 12.92C22.3758 12.9283 22.3721 12.9362 22.3685 12.9438C22.3549 12.9725 22.3437 12.9962 22.32 13.02C22.32 13.03 22.31 13.03 22.31 13.03L22.29 13.05L22.28 13.06L17.55 17.44C17.41 17.57 17.22 17.64 17.04 17.64C16.84 17.64 16.64 17.56 16.49 17.4C16.21 17.1 16.23 16.62 16.53 16.34L19.85 13.26H10.62C10.21 13.26 9.87 12.92 9.87 12.51C9.87 12.1 10.21 11.76 10.62 11.76H19.84L16.52 8.67998C16.22 8.39998 16.2 7.91998 16.48 7.61998C16.76 7.31998 17.24 7.29998 17.54 7.57998L22.27 11.96L22.28 11.97L22.3 11.99C22.3 12 22.31 12 22.31 12C22.3288 12.0188 22.3397 12.0415 22.3502 12.0632C22.3564 12.0762 22.3625 12.0888 22.37 12.1L22.38 12.11C22.3872 12.1207 22.3956 12.1315 22.4045 12.1427C22.4202 12.1628 22.4372 12.1843 22.45 12.21C22.45 12.215 22.4525 12.22 22.455 12.225C22.4575 12.23 22.46 12.235 22.46 12.24C22.473 12.266 22.4776 12.2963 22.4819 12.3254C22.4842 12.3409 22.4865 12.356 22.49 12.37C22.49 12.3964 22.4956 12.42 22.5008 12.4423C22.5055 12.4622 22.51 12.4811 22.51 12.5V12.51V12.52C22.51 12.57 22.5 12.61 22.49 12.65C22.4865 12.6639 22.4842 12.6791 22.4819 12.6946C22.4776 12.7236 22.473 12.7539 22.46 12.78C22.46 12.785 22.4575 12.79 22.455 12.795Z" fill="white" fill-opacity="0.5"/>
</g>
<defs>
<filter id="filter0_d" x="0" y="0" width="26.51" height="28.32" filterUnits="userSpaceOnUse" color-interpolation-filters="sRGB">
<feFlood flood-opacity="0" result="BackgroundImageFix"/>
<feColorMatrix in="SourceAlpha" type="matrix" values="0 0 0 0 0 0 0 0 0 0 0 0 0 0 0 0 0 0 127 0"/>
<feOffset dy="2"/>
<feGaussianBlur stdDeviation="2"/>
<feColorMatrix type="matrix" values="0 0 0 0 0 0 0 0 0 0 0 0 0 0 0 0 0 0 0.1 0"/>
<feBlend mode="normal" in2="BackgroundImageFix" result="effect1_dropShadow"/>
<feBlend mode="normal" in="SourceGraphic" in2="effect1_dropShadow" result="shape"/>
</filter>
</defs>
</svg>
